sacado de Chileazul.cl
todos los creditos para ellos

lo subo para los q no pueden descargar
de los otros servidores


General
Complete name                            :
2012_Apertura_fecha_14_udechile5_0_colocolo_PARTIDO_COMPLETO.mp4
Format                                   : MPEG-4
Format profile                           : Base Media / Version 2
Codec ID                                 : mp42
File size                                : 4.63 GiB
Duration                                 : 1h 46mn
Overall bit rate mode                    : Variable
Overall bit rate                         : 6 196 Kbps
Encoded date                             : UTC 2012-04-30 01:10:25
Tagged date                              : UTC 2012-04-30 01:10:25

Video
ID                                       : 1
Format                                   : MPEG-4 Visual
Format profile                           : Simple@L3
Format settings, BVOP                    : No
Format settings, QPel                    : No
Format settings, GMC                     : No warppoints
Format settings, Matrix                  : Default (H.263)
Codec ID                                 : 20
Duration                                 : 1h 46mn
Bit rate mode                            : Variable
Bit rate                                 : 6 000 Kbps
Maximum bit rate                         : 13.5 Mbps
Width                                    : 1 280 pixels
Height                                   : 720 pixels
Display aspect ratio                     : 16:9
Frame rate mode                          : Variable
Frame rate                               : 29.970 fps
Minimum frame rate                       : 14.985 fps
Maximum frame rate                       : 29.970 fps
Color space                              : YUV
Chroma subsampling                       : 4:2:0
Bit depth                                : 8 bits
Scan type                                : Progressive
Compression mode                         : Lossy
Bits/(Pixel*Frame)                       : 0.217
Stream size                              : 4.48 GiB (97%)
Language                                 : English
Encoded date                             : UTC 2012-04-30 01:10:25
Tagged date                              : UTC 2012-04-30 01:10:25

Audio
ID                                       : 2
Format                                   : AAC
Format/Info                              : Advanced Audio Codec
Format profile                           : LC
Codec ID                                 : 40
Duration                                 : 1h 46mn
Bit rate mode                            : Variable
Bit rate                                 : 192 Kbps
Channel(s)                               : 2 channels
Channel positions                        : Front: L R
Sampling rate                            : 48.0 KHz
Compression mode                         : Lossy
Stream size                              : 146 MiB (3%)
Language                                 : English
Encoded date                             : UTC 2012-04-30 01:10:25
Tagged date                              : UTC 2012-04-30 01:10:25


[IMG]http://i.imgur.com/07LUo.jpg[/IMG]
